<svg viewBox="0 0 32 32" xmlns="http://www.w3.org/2000/svg"><g data-name="6-User"><path d="M2 29c0-.78 1.92-1.7 3.24-2h.11l8-3a1 1 0 0 0 .65-1v-2.69a1 1 0 0 0-.57-.9A6 6 0 0 1 10 14a1 1 0 0 0-1-1v-2a1 1 0 0 0 1-1V8a6 6 0 0 1 12 0v2a1 1 0 0 0 1 1v2h2v-2a2 2 0 0 0-1-1.73V8A8 8 0 0 0 8 8v1.27A2 2 0 0 0 7 11v2a2 2 0 0 0 1 1.75 8.07 8.07 0 0 0 4 6.16v1.39L4.7 25c-.91.23-4.7 1.37-4.7 4v2a1 1 0 0 0 1 1h14v-2H2Z" fill="#3d3ee4" class="fill-000000"></path><path d="M24 16a8 8 0 1 0 8 8 8 8 0 0 0-8-8Zm0 14a6 6 0 1 1 6-6 6 6 0 0 1-6 6Z" fill="#3d3ee4" class="fill-000000"></path><path d="M23 20h2v4h-2zM23 26h2v2h-2z" fill="#3d3ee4" class="fill-000000"></path></g></svg>